# AST/ASF file generated using VICON BodyLanguage
# -----------------------------------------------
:version 1.10
:name VICON
:units
  mass 1.0
  length 0.45
  angle deg
:documentation
   .ast/.asf automatically generated from VICON data using
   VICON BodyBuilder and BodyLanguage model FoxedUp or BRILLIANT.MOD
:root
   order TX TY TZ RX RY RZ
   axis XYZ
   position 0 0 0  
   orientation 0 0 0 
:bonedata
  begin
     id 1 
     name lhipjoint
     direction 0.584852 -0.759097 0.285867 
     length 2.43633 
     axis 0 0 0  XYZ
  end
  begin
     id 2 
     name lfemur
     direction 0.34202 -0.939693 0  
     length 7.14704  
     axis 0 0 20  XYZ
    dof rx ry rz
    limits (-160.0 20.0)
           (-70.0 70.0)
           (-60.0 70.0)
  end
  begin
     id 3 
     name ltibia
     direction 0.342022 -0.939692 0   
     length 7.68483   
     axis 0 0 20   XYZ
    dof rx
    limits (-10.0 170.0)
  end
  begin
     id 4 
     name lfoot
     direction 0.0999605 -0.274639 0.956337   
     length 2.40452   
     axis -90 7.62852e-016 20   XYZ
    dof rx rz
    limits (-45.0 90.0)
           (-70.0 20.0)
  end
  begin
     id 5 
     name ltoes
     direction 1.53468e-011 -4.21881e-011 1   
     length 1.19837   
     axis -90 7.62852e-016 20   XYZ
    dof rx
    limits (-90.0 20.0)
  end
  begin
     id 6 
     name rhipjoint
     direction -0.569886 -0.769002 0.289597   
     length 2.40495  
     axis 0 0 0  XYZ 
  end
  begin
     id 7 
     name rfemur
     direction -0.34202 -0.939693 0   
     length 7.45086   
     axis 0 0 -20   XYZ
    dof rx ry rz
    limits (-160.0 20.0)
           (-70.0 70.0)
           (-70.0 60.0)
  end
  begin
     id 8 
     name rtibia
     direction -0.34202 -0.939693 0   
     length 7.76831   
     axis 0 0 -20   XYZ
    dof rx
    limits (-10.0 170.0)
 end
 begin
     id 9 
     name rfoot
     direction -0.0798572 -0.219406 0.97236   
     length 2.35911  
     axis -90 -7.62852e-016 -20   XYZ
    dof rx rz
    limits (-45.0 90.0)
           (-20.0 70.0)
  end
  begin
     id 10 
     name rtoes
     direction -1.53469e-011 -4.21728e-011 1   
     length 1.18261   
     axis -90 -7.62852e-016 -20   XYZ
    dof rx
    limits (-90.0 20.0)
  end
  begin
     id 11 
     name lowerback
     direction 0.0242088 0.999437 0.0232389   
     length 2.1561   
     axis 0 0 0   XYZ
    dof rx ry rz
    limits (-20.0 45.0)
           (-30.0 30.0)
           (-30.0 30.0)
  end
  begin
     id 12 
     name upperback
     direction -0.0356893 0.999013 -0.0264323   
     length 2.14431   
     axis 0 0 0   XYZ
    dof rx ry rz
    limits (-20.0 45.0)
           (-30.0 30.0)
           (-30.0 30.0)
  end
  begin
     id 13 
     name thorax
     direction -0.0472163 0.998194 -0.0371284   
     length 2.16169   
     axis 0 0 0   XYZ
    dof rx ry rz
    limits (-20.0 45.0)
           (-30.0 30.0)
           (-30.0 30.0)
  end
  begin
     id 14 
     name lowerneck
     direction 0.00863244 0.999921 0.00911972   
     length 1.58651   
     axis 0 0 0   XYZ
    dof rx ry rz
    limits (-20.0 45.0)
           (-30.0 30.0)
           (-30.0 30.0)
  end
  begin
     id 15 
     name upperneck
     direction 0.149523 0.979068 -0.138086   
     length 1.57486   
     axis 0 0 0   XYZ
    dof rx ry rz
    limits (-20.0 45.0)
           (-30.0 30.0)
           (-30.0 30.0)
  end
  begin
     id 16
     name head
     direction 0.0445219 0.997708 -0.0509576  
     length 1.6019  
     axis 0 0 0   XYZ
    dof rx ry rz
    limits (-20.0 45.0)
           (-30.0 30.0)
           (-30.0 30.0)
  end
  begin
     id 17 
     name lclavicle
     direction 0.911271 0.381667 -0.154644  
     length 3.80848  
     axis 0 0 0   XYZ
    dof ry rz
    limits (-20.0 10.0)
           (0.0 20.0)
  end
  begin
     id 18 
     name lhumerus
     direction 1 -4.49003e-011 2.1308e-027   
     length 5.19069   
     axis 180 -30 -90   XYZ
    dof rx ry rz
    limits (-60.0 90.0)
           (-90.0 90.0)
           (-90.0 90.0)
  end
  begin
     id 19
     name lradius
     direction 1 -4.48914e-011 4.01554e-027   
     length 3.30016   
     axis 180 -30 -90   XYZ
    dof rx
    limits (-10.0 170.0)
  end
  begin
     id 20
     name lwrist
     direction 1 -4.49003e-011 1.1934e-026   
     length 1.65008   
     axis -8.46377e-015 90 90   XYZ
    dof ry
    limits (-180.0 0.0)
 end
  begin
     id 21 
     name lhand
     direction 1 -4.49034e-011 2.38659e-026   
     length 0.707698   
     axis -1.52313e-014 90 90   XYZ
    dof rx rz
    limits (-90.0 90.0)
           (-45.0 45.0)
  end
  begin
     id 22 
     name lfingers
     direction 1 -4.48691e-011 4.77775e-026   
     length 0.570564   
     axis -3.04623e-014 90 90   XYZ
    dof rx
    limits (0.0 90.0)
  end
  begin
     id 23
     name lthumb
     direction 0.707107 -6.34832e-011 0.707107   
     length 0.819219   
     axis -90 45 -1.62303e-014   XYZ
    dof rx rz
    limits (-45.0 45.0)
           (-45.0 45.0)
  end
  begin
     id 24 
     name rclavicle
     direction -0.815579 0.573708 -0.0754329   
     length 3.54371  
     axis 0 0 0   XYZ 
    dof ry rz
    limits (-10.0 20.0)
           (-20.0 0.0)
  end
  begin
     id 25 
     name rhumerus
     direction -1 -4.48956e-011 3.05351e-028  
     length 5.23924   
     axis 180 30 90   XYZ
    dof rx ry rz
    limits (-90.0 60.0)
           (-90.0 90.0)
           (-90.0 90.0)
  end
  begin
     id 26 
     name rradius
     direction -1 -4.49013e-011 3.53849e-027   
     length 3.32953   
     axis 180 30 90   XYZ
    dof rx
    limits (-10.0 170.0)
  end
  begin
     id 27 
     name rwrist
     direction -1 -4.48901e-011 1.19374e-026   
     length 1.66477   
     axis -8.46377e-015 -90 -90   XYZ
    dof ry
    limits (-180.0 0.0)
  end
  begin
     id 28
     name rhand
     direction -1 -4.48877e-011 2.38764e-026   
     length 0.607414   
     axis -1.52313e-014 -90 -90   XYZ
    dof rx rz
    limits (-90.0 90.0)
           (-45.0 45.0)
  end
  begin
     id 29
     name rfingers
     direction -1 -4.48882e-011 4.77521e-026   
     length 0.489712   
     axis -3.04623e-014 -90 -90   XYZ
    dof rx
    limits (0.0 90.0)
  end
  begin
     id 30
     name rthumb
     direction -0.707107 -6.34974e-011 0.707107   
     length 0.703132   
     axis -90 -45 1.62303e-014   XYZ
    dof rx rz
    limits (-45.0 45.0)
           (-45.0 45.0)
  end
:hierarchy
  begin
    root lhipjoint rhipjoint lowerback
    lhipjoint lfemur
    lfemur ltibia
    ltibia lfoot
    lfoot ltoes
    rhipjoint rfemur
    rfemur rtibia
    rtibia rfoot
    rfoot rtoes
    lowerback upperback
    upperback thorax
    thorax lowerneck lclavicle rclavicle
    lowerneck upperneck
    upperneck head
    lclavicle lhumerus
    lhumerus lradius
    lradius lwrist
    lwrist lhand lthumb
    lhand lfingers
    rclavicle rhumerus
    rhumerus rradius
    rradius rwrist
    rwrist rhand rthumb
    rhand rfingers
  end

#!OML:ASF E:\VariousWalksJay\Project 1\Capture day 1\Session 1\Actor2.ASF
:FULLY-SPECIFIED
:DEGREES
257
root 17.1345 18.389 -24.7475 -0.365632 -30.9709 -0.511155
lowerback 1.71979 -7.68967 1.21183
upperback 4.82479 -10.289 -0.750249
thorax 3.68131 -5.09455 -1.56367
lowerneck -7.03603 6.02389 4.59197
upperneck 7.95706 6.60531 9.4272
head 3.70124 3.77342 2.70546
rclavicle -2.54743e-013 5.08889e-014
rhumerus -77.3139 16.5926 -108.324
rradius 44.4023
rwrist -9.00765
rhand -15.9076 10.2475
rfingers 7.12502
rthumb 10.2893 -19.4808
lclavicle -2.54743e-013 5.08889e-014
lhumerus 6.26371 -38.9056 69.367
lradius 116.123
lwrist 30.544
lhand -3.26763 -19.4661
lfingers 7.12502
lthumb 22.4571 9.24827
rfemur -56.0148 2.32052 27.4752
rtibia 29.0437
rfoot -30.2611 1.12636
rtoes -26.9849
lfemur 14.8534 11.3816 -24.4156
ltibia -9.22361e-014
lfoot 2.03137 4.97836
ltoes -16.04
258
root 17.1282 18.4147 -24.669 -0.423996 -31.1883 -0.320661
lowerback 1.67633 -7.71814 1.31789
upperback 4.74567 -10.3301 -0.640539
thorax 3.62372 -5.11416 -1.50834
lowerneck -7.0252 6.09088 4.727
upperneck 7.96345 6.70447 9.16678
head 3.71125 3.81617 2.59826
rclavicle 8.71671e-014 -1.15295e-014
rhumerus -77.3353 16.7731 -108.135
rradius 44.3851
rwrist -8.74509
rhand -15.9022 10.2797
rfingers 7.12502
rthumb 10.2945 -19.4483
lclavicle 8.71671e-014 -1.15295e-014
lhumerus 6.11229 -38.6859 69.222
lradius 116.355
lwrist 30.2903
lhand -3.3156 -19.5279
lfingers 7.12502
lthumb 22.411 9.19203
rfemur -55.7768 2.30457 27.5441
rtibia 29.2254
rfoot -30.3491 1.37852
rtoes -26.8413
lfemur 15.0187 11.6932 -24.5103
ltibia 2.54444e-014
lfoot 2.75943 4.62345
ltoes -16.5574
259
root 17.1208 18.4363 -24.5903 -0.464449 -31.3849 -0.128336
lowerback 1.60663 -7.75382 1.41458
upperback 4.66546 -10.3813 -0.526271
thorax 3.5819 -5.13889 -1.44758
lowerneck -7.0032 6.16052 4.83399
upperneck 7.94487 6.81264 8.91827
head 3.70905 3.86185 2.49911
rclavicle -1.16786e-014 1.35174e-014
rhumerus -77.3034 16.9619 -107.891
rradius 44.389
rwrist -8.51543
rhand -15.9238 10.3026
rfingers 7.12502
rthumb 10.2736 -19.4265
lclavicle -1.16786e-014 1.35174e-014
lhumerus 5.90251 -38.4648 69.1456
lradius 116.544
lwrist 30.016
lhand -3.37016 -19.6152
lfingers 7.12502
lthumb 22.3587 9.11103
rfemur -55.5142 2.33248 27.5325
rtibia 29.3924
rfoot -30.4348 1.53565
rtoes -26.6789
lfemur 15.1654 11.9822 -24.6092
ltibia -2.54444e-014
lfoot 3.44516 4.25163
ltoes -17.0335
260
root 17.1125 18.4534 -24.5115 -0.483113 -31.5416 0.0709234
lowerback 1.5053 -7.81545 1.49504
upperback 4.57576 -10.4678 -0.399676
thorax 3.55209 -5.18174 -1.37032
lowerneck -6.94544 6.24119 4.88787
upperneck 7.90036 6.94638 8.67899
head 3.68802 3.91737 2.41087
rclavicle -1.594e-013 1.39149e-014
rhumerus -77.2488 17.1947 -107.598
rradius 44.4251
rwrist -8.32844
rhand -15.9651 10.3129
rfingers 7.12502
rthumb 10.2339 -19.4182
lclavicle -1.594e-013 1.39149e-014
lhumerus 5.62683 -38.2157 69.1415
lradius 116.703
lwrist 29.7258
lhand -3.39002 -19.7107
lfingers 7.12502
lthumb 22.3396 9.01777
rfemur -55.2395 2.39304 27.4284
rtibia 29.5447
rfoot -30.5154 1.61633
rtoes -26.4613
lfemur 15.2872 12.2296 -24.7214
ltibia 1.27222e-014
lfoot 4.08002 3.85459
ltoes -17.4734
261
root 17.1032 18.4655 -24.4321 -0.477776 -31.6644 0.262877
lowerback 1.37125 -7.86836 1.59045
upperback 4.49217 -10.5434 -0.281719
thorax 3.54308 -5.21807 -1.31509
lowerneck -6.90951 6.30507 4.95782
upperneck 7.83979 7.05453 8.44479
head 3.6673 3.96084 2.32106
rclavicle -4.09993e-016 1.98785e-016
rhumerus -77.1261 17.3607 -107.237
rradius 44.4942
rwrist -8.16745
rhand -16.0263 10.3262
rfingers 7.12502
rthumb 10.1747 -19.4078
lclavicle -4.09993e-016 1.98785e-016
lhumerus 5.38867 -38.0333 69.1385
lradius 116.839
lwrist 29.4417
lhand -3.4689 -19.7819
lfingers 7.12502
lthumb 22.2639 8.95567
rfemur -54.9455 2.48934 27.2516
rtibia 29.6771
rfoot -30.5891 1.62022
rtoes -26.2209
lfemur 15.3941 12.4414 -24.8331
ltibia 2.8625e-014
lfoot 4.64764 3.42764
ltoes -17.8642
